<svg xmlns="http://www.w3.org/2000/svg" width="760" height="430" viewBox="0 0 760 430" role="img" aria-label="Flagship Figure 1 Melnikov gap map">
<rect width="100%" height="100%" fill="#f8fafc"/>
<text x="62" y="24" font-size="18" font-family="Arial, sans-serif" fill="#0f172a">Figure 1. Melnikov threshold vs period-doubling onset gap map</text>
<line x1="62" y1="376" x2="732" y2="376" stroke="#0f172a" stroke-width="1.3"/>
<line x1="62" y1="34" x2="62" y2="376" stroke="#0f172a" stroke-width="1.3"/>
<line x1="62" y1="361.70" x2="732" y2="361.70" stroke="#64748b" stroke-width="1" stroke-dasharray="4 4"/>
<text x="676" y="354.70" font-size="12" fill="#475569">A_PD/A_c = 1</text>
<line x1="62.00" y1="34.00" x2="62.00" y2="34.00" stroke="#345" stroke-width="1"/><line x1="58.00" y1="34.00" x2="66.00" y2="34.00" stroke="#345" stroke-width="1"/><line x1="58.00" y1="34.00" x2="66.00" y2="34.00" stroke="#345" stroke-width="1"/><line x1="109.86" y1="186.16" x2="109.86" y2="186.16" stroke="#345" stroke-width="1"/><line x1="105.86" y1="186.16" x2="113.86" y2="186.16" stroke="#345" stroke-width="1"/><line x1="105.86" y1="186.16" x2="113.86" y2="186.16" stroke="#345" stroke-width="1"/><line x1="157.71" y1="254.97" x2="157.71" y2="254.97" stroke="#345" stroke-width="1"/><line x1="153.71" y1="254.97" x2="161.71" y2="254.97" stroke="#345" stroke-width="1"/><line x1="153.71" y1="254.97" x2="161.71" y2="254.97" stroke="#345" stroke-width="1"/><line x1="205.57" y1="292.05" x2="205.57" y2="292.05" stroke="#345" stroke-width="1"/><line x1="201.57" y1="292.05" x2="209.57" y2="292.05" stroke="#345" stroke-width="1"/><line x1="201.57" y1="292.05" x2="209.57" y2="292.05" stroke="#345" stroke-width="1"/><line x1="253.43" y1="314.27" x2="253.43" y2="314.27" stroke="#345" stroke-width="1"/><line x1="249.43" y1="314.27" x2="257.43" y2="314.27" stroke="#345" stroke-width="1"/><line x1="249.43" y1="314.27" x2="257.43" y2="314.27" stroke="#345" stroke-width="1"/><line x1="301.29" y1="328.62" x2="301.29" y2="328.61" stroke="#345" stroke-width="1"/><line x1="297.29" y1="328.62" x2="305.29" y2="328.62" stroke="#345" stroke-width="1"/><line x1="297.29" y1="328.61" x2="305.29" y2="328.61" stroke="#345" stroke-width="1"/><line x1="349.14" y1="338.41" x2="349.14" y2="338.41" stroke="#345" stroke-width="1"/><line x1="345.14" y1="338.41" x2="353.14" y2="338.41" stroke="#345" stroke-width="1"/><line x1="345.14" y1="338.41" x2="353.14" y2="338.41" stroke="#345" stroke-width="1"/><line x1="397.00" y1="345.40" x2="397.00" y2="345.40" stroke="#345" stroke-width="1"/><line x1="393.00" y1="345.40" x2="401.00" y2="345.40" stroke="#345" stroke-width="1"/><line x1="393.00" y1="345.40" x2="401.00" y2="345.40" stroke="#345" stroke-width="1"/><line x1="444.86" y1="350.57" x2="444.86" y2="350.57" stroke="#345" stroke-width="1"/><line x1="440.86" y1="350.57" x2="448.86" y2="350.57" stroke="#345" stroke-width="1"/><line x1="440.86" y1="350.57" x2="448.86" y2="350.57" stroke="#345" stroke-width="1"/><line x1="492.71" y1="354.51" x2="492.71" y2="354.51" stroke="#345" stroke-width="1"/><line x1="488.71" y1="354.51" x2="496.71" y2="354.51" stroke="#345" stroke-width="1"/><line x1="488.71" y1="354.51" x2="496.71" y2="354.51" stroke="#345" stroke-width="1"/><line x1="540.57" y1="357.58" x2="540.57" y2="357.58" stroke="#345" stroke-width="1"/><line x1="536.57" y1="357.58" x2="544.57" y2="357.58" stroke="#345" stroke-width="1"/><line x1="536.57" y1="357.58" x2="544.57" y2="357.58" stroke="#345" stroke-width="1"/><line x1="588.43" y1="360.02" x2="588.43" y2="360.02" stroke="#345" stroke-width="1"/><line x1="584.43" y1="360.02" x2="592.43" y2="360.02" stroke="#345" stroke-width="1"/><line x1="584.43" y1="360.02" x2="592.43" y2="360.02" stroke="#345" stroke-width="1"/><line x1="636.29" y1="361.98" x2="636.29" y2="361.98" stroke="#345" stroke-width="1"/><line x1="632.29" y1="361.98" x2="640.29" y2="361.98" stroke="#345" stroke-width="1"/><line x1="632.29" y1="361.98" x2="640.29" y2="361.98" stroke="#345" stroke-width="1"/><line x1="684.14" y1="363.57" x2="684.14" y2="363.57" stroke="#345" stroke-width="1"/><line x1="680.14" y1="363.57" x2="688.14" y2="363.57" stroke="#345" stroke-width="1"/><line x1="680.14" y1="363.57" x2="688.14" y2="363.57" stroke="#345" stroke-width="1"/><line x1="732.00" y1="364.85" x2="732.00" y2="364.85" stroke="#345" stroke-width="1"/><line x1="728.00" y1="364.85" x2="736.00" y2="364.85" stroke="#345" stroke-width="1"/><line x1="728.00" y1="364.85" x2="736.00" y2="364.85" stroke="#345" stroke-width="1"/>
<polyline points="62.00,34.00 109.86,186.16 157.71,254.97 205.57,292.05 253.43,314.27 301.29,328.62 349.14,338.41 397.00,345.40 444.86,350.57 492.71,354.51 540.57,357.58 588.43,360.02 636.29,361.98 684.14,363.57 732.00,364.85" fill="none" stroke="#0f766e" stroke-width="3"/>
<circle cx="62.00" cy="34.00" r="4.2" fill="#0f766e" stroke="#063" stroke-width="1"/><circle cx="109.86" cy="186.16" r="4.2" fill="#0f766e" stroke="#063" stroke-width="1"/><circle cx="157.71" cy="254.97" r="4.2" fill="#0f766e" stroke="#063" stroke-width="1"/><circle cx="205.57" cy="292.05" r="4.2" fill="#0f766e" stroke="#063" stroke-width="1"/><circle cx="253.43" cy="314.27" r="4.2" fill="#0f766e" stroke="#063" stroke-width="1"/><circle cx="301.29" cy="328.62" r="4.2" fill="#0f766e" stroke="#063" stroke-width="1"/><circle cx="349.14" cy="338.41" r="4.2" fill="#0f766e" stroke="#063" stroke-width="1"/><circle cx="397.00" cy="345.40" r="4.2" fill="#0f766e" stroke="#063" stroke-width="1"/><circle cx="444.86" cy="350.57" r="4.2" fill="#0f766e" stroke="#063" stroke-width="1"/><circle cx="492.71" cy="354.51" r="4.2" fill="#0f766e" stroke="#063" stroke-width="1"/><circle cx="540.57" cy="357.58" r="4.2" fill="#0f766e" stroke="#063" stroke-width="1"/><circle cx="588.43" cy="360.02" r="4.2" fill="#0f766e" stroke="#063" stroke-width="1"/><circle cx="636.29" cy="361.98" r="4.2" fill="#0f766e" stroke="#063" stroke-width="1"/><circle cx="684.14" cy="363.57" r="4.2" fill="#0f766e" stroke="#063" stroke-width="1"/><circle cx="732.00" cy="364.85" r="4.2" fill="#0f766e" stroke="#063" stroke-width="1"/>
<line x1="629.56" y1="34" x2="629.56" y2="376" stroke="#b45309" stroke-width="2" stroke-dasharray="6 5"/><text x="637.56" y="52" font-size="13" fill="#7c2d12">gamma ~= 0.693</text>
<text x="315" y="415" font-size="14" fill="#0f172a">damping gamma</text>
<text x="16" y="291" transform="rotate(-90 16 291)" font-size="14" fill="#0f172a">ratio A_PD / A_c</text>
</svg>
